<mxfile host="app.diagrams.net" modified="2023-09-30T09:00:18.015Z" agent="Mozilla/5.0 (Windows NT 10.0; Win64; x64) AppleWebKit/537.36 (KHTML, like Gecko) Chrome/117.0.0.0 Safari/537.36" etag="UoyBd1-5ggjDNEsvZq8H" version="22.0.0" type="device">
  <diagram name="Trang-1" id="Cu3a8MfInnqjzVp0vXfk">
    <mxGraphModel dx="628" dy="329" grid="1" gridSize="10" guides="1" tooltips="1" connect="1" arrows="1" fold="1" page="1" pageScale="1" pageWidth="827" pageHeight="1169" math="0" shadow="0">
      <root>
        <mxCell id="0" />
        <mxCell id="1" parent="0" />
        <mxCell id="EnHhpUaNQY2PojhGJ-AY-1" value="Admin" style="shape=umlActor;verticalLabelPosition=bottom;verticalAlign=top;html=1;outlineConnect=0;" vertex="1" parent="1">
          <mxGeometry x="120" y="40" width="30" height="60" as="geometry" />
        </mxCell>
        <mxCell id="EnHhpUaNQY2PojhGJ-AY-4" value="" style="endArrow=none;dashed=1;html=1;dashPattern=1 3;strokeWidth=2;rounded=0;" edge="1" parent="1">
          <mxGeometry width="50" height="50" relative="1" as="geometry">
            <mxPoint x="140" y="1230" as="sourcePoint" />
            <mxPoint x="140" y="120" as="targetPoint" />
          </mxGeometry>
        </mxCell>
        <mxCell id="EnHhpUaNQY2PojhGJ-AY-5" value="Order List Page" style="rounded=0;whiteSpace=wrap;html=1;" vertex="1" parent="1">
          <mxGeometry x="320" y="40" width="120" height="60" as="geometry" />
        </mxCell>
        <mxCell id="EnHhpUaNQY2PojhGJ-AY-6" value="" style="endArrow=none;dashed=1;html=1;dashPattern=1 3;strokeWidth=2;rounded=0;" edge="1" parent="1">
          <mxGeometry width="50" height="50" relative="1" as="geometry">
            <mxPoint x="379" y="1210" as="sourcePoint" />
            <mxPoint x="380" y="100" as="targetPoint" />
          </mxGeometry>
        </mxCell>
        <mxCell id="EnHhpUaNQY2PojhGJ-AY-7" value="AdminController" style="rounded=0;whiteSpace=wrap;html=1;" vertex="1" parent="1">
          <mxGeometry x="581" y="40" width="120" height="60" as="geometry" />
        </mxCell>
        <mxCell id="EnHhpUaNQY2PojhGJ-AY-8" value="" style="endArrow=none;dashed=1;html=1;dashPattern=1 3;strokeWidth=2;rounded=0;" edge="1" parent="1" source="EnHhpUaNQY2PojhGJ-AY-15">
          <mxGeometry width="50" height="50" relative="1" as="geometry">
            <mxPoint x="640" y="1210" as="sourcePoint" />
            <mxPoint x="641" y="100" as="targetPoint" />
          </mxGeometry>
        </mxCell>
        <mxCell id="EnHhpUaNQY2PojhGJ-AY-9" value="OrderDAO" style="rounded=0;whiteSpace=wrap;html=1;" vertex="1" parent="1">
          <mxGeometry x="855" y="41" width="120" height="60" as="geometry" />
        </mxCell>
        <mxCell id="EnHhpUaNQY2PojhGJ-AY-10" value="" style="endArrow=none;dashed=1;html=1;dashPattern=1 3;strokeWidth=2;rounded=0;" edge="1" parent="1" source="EnHhpUaNQY2PojhGJ-AY-22">
          <mxGeometry width="50" height="50" relative="1" as="geometry">
            <mxPoint x="914" y="1211" as="sourcePoint" />
            <mxPoint x="915" y="101" as="targetPoint" />
          </mxGeometry>
        </mxCell>
        <mxCell id="EnHhpUaNQY2PojhGJ-AY-11" value="" style="endArrow=classic;html=1;rounded=0;" edge="1" parent="1">
          <mxGeometry width="50" height="50" relative="1" as="geometry">
            <mxPoint x="140" y="160" as="sourcePoint" />
            <mxPoint x="380" y="160" as="targetPoint" />
          </mxGeometry>
        </mxCell>
        <mxCell id="EnHhpUaNQY2PojhGJ-AY-12" value="input search fillter" style="edgeLabel;html=1;align=center;verticalAlign=middle;resizable=0;points=[];" vertex="1" connectable="0" parent="EnHhpUaNQY2PojhGJ-AY-11">
          <mxGeometry x="0.2856" y="-1" relative="1" as="geometry">
            <mxPoint x="-24" as="offset" />
          </mxGeometry>
        </mxCell>
        <mxCell id="EnHhpUaNQY2PojhGJ-AY-13" value="" style="endArrow=classic;html=1;rounded=0;" edge="1" parent="1">
          <mxGeometry width="50" height="50" relative="1" as="geometry">
            <mxPoint x="380" y="180" as="sourcePoint" />
            <mxPoint x="640" y="180" as="targetPoint" />
          </mxGeometry>
        </mxCell>
        <mxCell id="EnHhpUaNQY2PojhGJ-AY-14" value="doGet()" style="edgeLabel;html=1;align=center;verticalAlign=middle;resizable=0;points=[];" vertex="1" connectable="0" parent="EnHhpUaNQY2PojhGJ-AY-13">
          <mxGeometry x="-0.1452" y="-2" relative="1" as="geometry">
            <mxPoint as="offset" />
          </mxGeometry>
        </mxCell>
        <mxCell id="EnHhpUaNQY2PojhGJ-AY-16" value="" style="endArrow=none;dashed=1;html=1;dashPattern=1 3;strokeWidth=2;rounded=0;" edge="1" parent="1" target="EnHhpUaNQY2PojhGJ-AY-15">
          <mxGeometry width="50" height="50" relative="1" as="geometry">
            <mxPoint x="640" y="1210" as="sourcePoint" />
            <mxPoint x="641" y="100" as="targetPoint" />
          </mxGeometry>
        </mxCell>
        <mxCell id="EnHhpUaNQY2PojhGJ-AY-15" value="" style="rounded=0;whiteSpace=wrap;html=1;" vertex="1" parent="1">
          <mxGeometry x="636" y="180" width="10" height="230" as="geometry" />
        </mxCell>
        <mxCell id="EnHhpUaNQY2PojhGJ-AY-17" value="" style="endArrow=classic;html=1;rounded=0;" edge="1" parent="1">
          <mxGeometry width="50" height="50" relative="1" as="geometry">
            <mxPoint x="660" y="200" as="sourcePoint" />
            <mxPoint x="670" y="270" as="targetPoint" />
            <Array as="points">
              <mxPoint x="710" y="200" />
              <mxPoint x="710" y="270" />
            </Array>
          </mxGeometry>
        </mxCell>
        <mxCell id="EnHhpUaNQY2PojhGJ-AY-19" value="searchAndFillterOrder()" style="edgeLabel;html=1;align=center;verticalAlign=middle;resizable=0;points=[];" vertex="1" connectable="0" parent="EnHhpUaNQY2PojhGJ-AY-17">
          <mxGeometry x="0.0082" y="-3" relative="1" as="geometry">
            <mxPoint as="offset" />
          </mxGeometry>
        </mxCell>
        <mxCell id="EnHhpUaNQY2PojhGJ-AY-18" value="" style="rounded=0;whiteSpace=wrap;html=1;" vertex="1" parent="1">
          <mxGeometry x="646" y="250" width="10" height="180" as="geometry" />
        </mxCell>
        <mxCell id="EnHhpUaNQY2PojhGJ-AY-20" value="" style="endArrow=classic;html=1;rounded=0;" edge="1" parent="1">
          <mxGeometry width="50" height="50" relative="1" as="geometry">
            <mxPoint x="670" y="320" as="sourcePoint" />
            <mxPoint x="870" y="320" as="targetPoint" />
          </mxGeometry>
        </mxCell>
        <mxCell id="EnHhpUaNQY2PojhGJ-AY-24" value="getNumberOfOrder()" style="edgeLabel;html=1;align=center;verticalAlign=middle;resizable=0;points=[];" vertex="1" connectable="0" parent="EnHhpUaNQY2PojhGJ-AY-20">
          <mxGeometry x="-0.0435" y="3" relative="1" as="geometry">
            <mxPoint y="3" as="offset" />
          </mxGeometry>
        </mxCell>
        <mxCell id="EnHhpUaNQY2PojhGJ-AY-23" value="" style="endArrow=none;dashed=1;html=1;dashPattern=1 3;strokeWidth=2;rounded=0;" edge="1" parent="1" target="EnHhpUaNQY2PojhGJ-AY-22">
          <mxGeometry width="50" height="50" relative="1" as="geometry">
            <mxPoint x="914" y="1211" as="sourcePoint" />
            <mxPoint x="915" y="101" as="targetPoint" />
          </mxGeometry>
        </mxCell>
        <mxCell id="EnHhpUaNQY2PojhGJ-AY-22" value="" style="rounded=0;whiteSpace=wrap;html=1;" vertex="1" parent="1">
          <mxGeometry x="910" y="320" width="10" height="100" as="geometry" />
        </mxCell>
        <mxCell id="EnHhpUaNQY2PojhGJ-AY-25" value="" style="endArrow=classic;html=1;rounded=0;" edge="1" parent="1">
          <mxGeometry width="50" height="50" relative="1" as="geometry">
            <mxPoint x="930" y="340" as="sourcePoint" />
            <mxPoint x="1630" y="340" as="targetPoint" />
          </mxGeometry>
        </mxCell>
        <mxCell id="EnHhpUaNQY2PojhGJ-AY-27" value="" style="endArrow=none;dashed=1;html=1;rounded=0;entryX=0.5;entryY=1;entryDx=0;entryDy=0;" edge="1" parent="1" source="EnHhpUaNQY2PojhGJ-AY-29">
          <mxGeometry width="50" height="50" relative="1" as="geometry">
            <mxPoint x="1640" y="1180" as="sourcePoint" />
            <mxPoint x="1640" y="120" as="targetPoint" />
          </mxGeometry>
        </mxCell>
        <mxCell id="EnHhpUaNQY2PojhGJ-AY-28" value="DB" style="shape=cylinder3;whiteSpace=wrap;html=1;boundedLbl=1;backgroundOutline=1;size=15;" vertex="1" parent="1">
          <mxGeometry x="1610" y="41" width="60" height="80" as="geometry" />
        </mxCell>
        <mxCell id="EnHhpUaNQY2PojhGJ-AY-30" value="" style="endArrow=none;dashed=1;html=1;rounded=0;entryX=0.5;entryY=1;entryDx=0;entryDy=0;" edge="1" parent="1" target="EnHhpUaNQY2PojhGJ-AY-29">
          <mxGeometry width="50" height="50" relative="1" as="geometry">
            <mxPoint x="1640" y="1180" as="sourcePoint" />
            <mxPoint x="1640" y="120" as="targetPoint" />
          </mxGeometry>
        </mxCell>
        <mxCell id="EnHhpUaNQY2PojhGJ-AY-29" value="" style="rounded=0;whiteSpace=wrap;html=1;" vertex="1" parent="1">
          <mxGeometry x="1635" y="340" width="10" height="60" as="geometry" />
        </mxCell>
        <mxCell id="EnHhpUaNQY2PojhGJ-AY-31" value="" style="endArrow=classic;html=1;rounded=0;dashed=1;" edge="1" parent="1">
          <mxGeometry width="50" height="50" relative="1" as="geometry">
            <mxPoint x="1630" y="400" as="sourcePoint" />
            <mxPoint x="930" y="400" as="targetPoint" />
          </mxGeometry>
        </mxCell>
        <mxCell id="EnHhpUaNQY2PojhGJ-AY-32" value="return result" style="edgeLabel;html=1;align=center;verticalAlign=middle;resizable=0;points=[];" vertex="1" connectable="0" parent="EnHhpUaNQY2PojhGJ-AY-31">
          <mxGeometry x="0.0703" y="-1" relative="1" as="geometry">
            <mxPoint as="offset" />
          </mxGeometry>
        </mxCell>
        <mxCell id="EnHhpUaNQY2PojhGJ-AY-33" value="" style="endArrow=classic;html=1;rounded=0;" edge="1" parent="1">
          <mxGeometry width="50" height="50" relative="1" as="geometry">
            <mxPoint x="900" y="420" as="sourcePoint" />
            <mxPoint x="660" y="420" as="targetPoint" />
          </mxGeometry>
        </mxCell>
        <mxCell id="EnHhpUaNQY2PojhGJ-AY-34" value="return number of order" style="edgeLabel;html=1;align=center;verticalAlign=middle;resizable=0;points=[];" vertex="1" connectable="0" parent="EnHhpUaNQY2PojhGJ-AY-33">
          <mxGeometry x="0.1864" y="1" relative="1" as="geometry">
            <mxPoint as="offset" />
          </mxGeometry>
        </mxCell>
      </root>
    </mxGraphModel>
  </diagram>
</mxfile>
